<?xml version="1.0" encoding="UTF-8"?>
<svg id="OBJECTS" xmlns="http://www.w3.org/2000/svg" xmlns:xlink="http://www.w3.org/1999/xlink" viewBox="0 0 500 500">
  <defs>
    <style>
      .cls-1 {
        fill: url(#linear-gradient);
      }

      .cls-2 {
        fill: #fff;
      }

      .cls-3 {
        fill: #eff4e9;
      }

      .cls-4, .cls-5 {
        fill: #84c12d;
      }

      .cls-6 {
        fill: #b0dd58;
      }

      .cls-7 {
        opacity: .3;
      }

      .cls-8, .cls-5 {
        opacity: .4;
      }
    </style>
    <linearGradient id="linear-gradient" x1="213.93" y1="68.8" x2="213.93" y2="434.74" gradientUnits="userSpaceOnUse">
      <stop offset="0" stop-color="#dcea57"/>
      <stop offset="1" stop-color="#8fd43d"/>
    </linearGradient>
  </defs>
  <path class="cls-2" d="m62.84,70.33c0,.3-.02.59-.02.89v277c0,62.33,51,113.34,113.34,113.34h75.56c62.33,0,113.34-51,113.34-113.34V71.22c0-.3-.02-.59-.02-.89H62.84Z"/>
  <path class="cls-2" d="m306.82,387.13c-71.88,0-130.36-58.48-130.36-130.36s58.48-130.36,130.36-130.36,130.36,58.48,130.36,130.36-58.48,130.36-130.36,130.36Zm0-235.54c-57.99,0-105.18,47.18-105.18,105.18s47.18,105.18,105.18,105.18,105.18-47.18,105.18-105.18-47.18-105.18-105.18-105.18Z"/>
  <path class="cls-1" d="m84.32,68.8c0,.26-.02.51-.02.76v267.95c0,53.47,43.75,97.22,97.22,97.22h64.82c53.47,0,97.22-43.75,97.22-97.22V69.57c0-.26-.02-.51-.02-.76H84.32Z"/>
  <g class="cls-7">
    <path class="cls-2" d="m102.45,121.59c-.3,52.75-.02,105.5-.02,158.25,0,21.42-1.75,43.88,2.72,64.96,9.56,45.11,52.33,75.62,97.04,76.66,10.16.24,10.13-15.5,0-15.74-45.85-1.07-84.02-37.72-84.02-84.28v-55.32c0-48.17-.26-96.36.02-144.53.06-10.15-15.68-10.15-15.74,0h0Z"/>
  </g>
  <g class="cls-8">
    <path class="cls-4" d="m178.36,181.08c0,6.19-5.02,11.2-11.2,11.2s-11.21-5.01-11.21-11.2,5.01-11.21,11.21-11.21,11.2,5.01,11.2,11.21Z"/>
    <path class="cls-4" d="m208.14,239.36c0,4.13-3.35,7.47-7.47,7.47s-7.47-3.34-7.47-7.47,3.34-7.47,7.47-7.47,7.47,3.34,7.47,7.47Z"/>
    <path class="cls-4" d="m302.11,196.26c0,12-9.73,21.71-21.71,21.71s-21.71-9.72-21.71-21.71,9.71-21.72,21.71-21.72,21.71,9.72,21.71,21.72Z"/>
    <path class="cls-4" d="m193.2,322.17c0,12-9.73,21.71-21.72,21.71s-21.71-9.72-21.71-21.71,9.71-21.72,21.71-21.72,21.72,9.72,21.72,21.72Z"/>
    <path class="cls-4" d="m295.74,265.94c0,6.19-5.02,11.21-11.21,11.21s-11.2-5.01-11.2-11.21,5.01-11.2,11.2-11.2,11.21,5.01,11.21,11.2Z"/>
    <path class="cls-4" d="m258.68,343.88c0,4.13-3.35,7.47-7.47,7.47s-7.47-3.34-7.47-7.47,3.34-7.47,7.47-7.47,7.47,3.34,7.47,7.47Z"/>
  </g>
  <g>
    <ellipse class="cls-3" cx="213.93" cy="70.33" rx="151.12" ry="31.88"/>
    <g>
      <g>
        <path class="cls-6" d="m213.93,55.25c-72.15,0-130.64,12.34-130.64,27.56,0,1.38.5,2.73,1.42,4.05,26.51,9.2,74.46,15.34,129.22,15.34s102.71-6.14,129.22-15.34c.92-1.32,1.42-2.67,1.42-4.05,0-15.22-58.49-27.56-130.64-27.56Z"/>
        <path class="cls-5" d="m144.11,86.86c-.93-1.32-1.42-2.67-1.42-4.05,0-13.06,43.1-24,100.94-26.83-9.54-.47-19.48-.73-29.7-.73-72.15,0-130.64,12.34-130.64,27.56,0,1.38.5,2.73,1.42,4.05,26.51,9.2,74.46,15.34,129.22,15.34,10.17,0,20.1-.22,29.7-.62-42.12-1.77-77.93-7.23-99.52-14.72Z"/>
      </g>
      <g class="cls-7">
        <path class="cls-4" d="m229.67,76.15c0,1.34-3.52,2.43-7.87,2.43s-7.87-1.09-7.87-2.43,3.52-2.43,7.87-2.43,7.87,1.09,7.87,2.43Z"/>
        <path class="cls-4" d="m251.54,90.34c0,.8-2.11,1.45-4.71,1.45s-4.71-.65-4.71-1.45,2.11-1.45,4.71-1.45,4.71.65,4.71,1.45Z"/>
        <path class="cls-4" d="m284.98,73.73c0,2.11-5.54,3.81-12.37,3.81s-12.37-1.71-12.37-3.81,5.54-3.82,12.37-3.82,12.37,1.71,12.37,3.82Z"/>
        <path class="cls-4" d="m306.82,84c0,.8-2.11,1.45-4.71,1.45s-4.71-.65-4.71-1.45,2.11-1.45,4.71-1.45,4.71.65,4.71,1.45Z"/>
        <path class="cls-4" d="m242.11,69.91c0,.8-2.11,1.45-4.71,1.45s-4.71-.65-4.71-1.45,2.11-1.45,4.71-1.45,4.71.65,4.71,1.45Z"/>
      </g>
    </g>
  </g>
</svg>